<!DOCTYPE svg PUBLIC "-//W3C//DTD SVG 1.1//EN" "http://www.w3.org/Graphics/SVG/1.1/DTD/svg11.dtd">
<!-- Uploaded to: SVG Repo, www.svgrepo.com, Transformed by: SVG Repo Mixer Tools -->
<svg width="800px" height="800px" viewBox="0 0 24 24" id="Layer_1" data-name="Layer 1" xmlns="http://www.w3.org/2000/svg" fill="#ffffff" stroke="#ffffff">
<g id="SVGRepo_bgCarrier" stroke-width="0"/>
<g id="SVGRepo_tracerCarrier" stroke-linecap="round" stroke-linejoin="round"/>
<g id="SVGRepo_iconCarrier">
<defs>
<style>.cls-1{fill:none;stroke:#ffffff;stroke-miterlimit:10;stroke-width:2.4;}</style>
</defs>
<line class="cls-1" x1="12" y1="19" x2="12" y2="15.46"/>
<line class="cls-1" x1="12" y1="8.54" x2="12" y2="5"/>
<polyline class="cls-1" points="16 1 12 5 8 1"/>
<polyline class="cls-1" points="8 23 12 19 16 23"/>
<line class="cls-1" x1="18.06" y1="15.5" x2="15" y2="13.73"/>
<line class="cls-1" x1="9" y1="10.27" x2="5.94" y2="8.5"/>
<polyline class="cls-1" points="4.47 3.04 5.94 8.5 0.47 9.96"/>
<polyline class="cls-1" points="19.53 20.96 18.06 15.5 23.53 14.04"/>
<line class="cls-1" x1="9" y1="13.73" x2="5.94" y2="15.5"/>
<line class="cls-1" x1="18.06" y1="8.5" x2="15" y2="10.27"/>
<polyline class="cls-1" points="19.53 3.04 18.06 8.5 23.53 9.96"/>
<polyline class="cls-1" points="4.47 20.96 5.94 15.5 0.47 14.04"/>
<polygon class="cls-1" points="15 10.27 15 13.73 12 15.46 9 13.73 9 10.27 12 8.54 15 10.27"/>
<line class="cls-1" x1="4" y1="12" x2="6" y2="12"/>
<line class="cls-1" x1="18" y1="12" x2="20" y2="12"/>
<line class="cls-1" x1="8" y1="18.93" x2="9" y2="17.2"/>
<line class="cls-1" x1="15" y1="6.8" x2="16" y2="5.07"/>
<line class="cls-1" x1="16" y1="18.93" x2="15" y2="17.2"/>
<line class="cls-1" x1="9" y1="6.8" x2="8" y2="5.07"/>
</g>
</svg>